<?xml version="1.0" encoding="UTF-8" standalone="no"?>
<!DOCTYPE svg PUBLIC "-//W3C//DTD SVG 1.1//EN"
 "http://www.w3.org/Graphics/SVG/1.1/DTD/svg11.dtd">
<!-- Generated by graphviz version 2.40.1 (20161225.0304)
 -->
<!-- Title: dependencies Pages: 1 -->
<svg width="1455pt" height="211pt"
 viewBox="0.00 0.00 1455.00 211.00" xmlns="http://www.w3.org/2000/svg" xmlns:xlink="http://www.w3.org/1999/xlink">
<g id="graph0" class="graph" transform="scale(1 1) rotate(0) translate(4 207)">
<title>dependencies</title>
<polygon fill="#ffffff" stroke="transparent" points="-4,4 -4,-207 1451,-207 1451,4 -4,4"/>
<text text-anchor="start" x="702.5091" y="-42.4" font-family="sans-serif" font-weight="bold" font-size="14.00" fill="#000000">Legend</text>
<polygon fill="#ffffb3" stroke="transparent" points="489.5,-10 489.5,-30 509.5,-30 509.5,-10 489.5,-10"/>
<text text-anchor="start" x="513.129" y="-15.4" font-family="sans-serif" font-size="14.00" fill="#000000"> &#160;Declarations</text>
<polygon fill="#8dd3c7" stroke="transparent" points="602.5,-10 602.5,-30 622.5,-30 622.5,-10 602.5,-10"/>
<text text-anchor="start" x="626.2251" y="-15.4" font-family="sans-serif" font-size="14.00" fill="#000000"> &#160;Module</text>
<polygon fill="#80b1d3" stroke="transparent" points="688.5,-10 688.5,-30 708.5,-30 708.5,-10 688.5,-10"/>
<text text-anchor="start" x="712.2812" y="-15.4" font-family="sans-serif" font-size="14.00" fill="#000000"> &#160;Bootstrap</text>
<polygon fill="#fdb462" stroke="transparent" points="785.5,-10 785.5,-30 805.5,-30 805.5,-10 785.5,-10"/>
<text text-anchor="start" x="809.1732" y="-15.4" font-family="sans-serif" font-size="14.00" fill="#000000"> &#160;Providers</text>
<polygon fill="#fb8072" stroke="transparent" points="881.5,-10 881.5,-30 901.5,-30 901.5,-10 881.5,-10"/>
<text text-anchor="start" x="905.2258" y="-15.4" font-family="sans-serif" font-size="14.00" fill="#000000"> &#160;Exports</text>
<g id="clust1" class="cluster">
<title>cluster_UserModule</title>
<polygon fill="none" stroke="#000000" stroke-dasharray="1,5" points="8,-70 8,-195 1439,-195 1439,-70 8,-70"/>
</g>
<g id="clust2" class="cluster">
<title>cluster_UserModule_declarations</title>
<polygon fill="none" stroke="#000000" points="844,-78 844,-130 1431,-130 1431,-78 844,-78"/>
</g>
<g id="clust7" class="cluster">
<title>cluster_UserModule_imports</title>
<polygon fill="none" stroke="#000000" points="696,-78 696,-130 836,-130 836,-78 696,-78"/>
</g>
<g id="clust10" class="cluster">
<title>cluster_UserModule_providers</title>
<polygon fill="none" stroke="#000000" points="16,-78 16,-130 688,-130 688,-78 16,-78"/>
</g>
<!-- UserComponent -->
<g id="node1" class="node">
<title>UserComponent</title>
<polygon fill="#ffffb3" stroke="#000000" points="1422.7591,-122 1315.2409,-122 1315.2409,-86 1422.7591,-86 1422.7591,-122"/>
<text text-anchor="middle" x="1369" y="-99.8" font-family="Times,serif" font-size="14.00" fill="#000000">UserComponent</text>
</g>
<!-- UserModule -->
<g id="node5" class="node">
<title>UserModule</title>
<polygon fill="#8dd3c7" stroke="#000000" points="740.9762,-187 737.9762,-191 716.9762,-191 713.9762,-187 655.0238,-187 655.0238,-151 740.9762,-151 740.9762,-187"/>
<text text-anchor="middle" x="698" y="-164.8" font-family="Times,serif" font-size="14.00" fill="#000000">UserModule</text>
</g>
<!-- UserComponent&#45;&gt;UserModule -->
<g id="edge1" class="edge">
<title>UserComponent&#45;&gt;UserModule</title>
<path fill="none" stroke="#000000" d="M1369,-122.0109C1369,-144.4852 1369,-180 1369,-180 1369,-180 750.9948,-180 750.9948,-180"/>
<polygon fill="#000000" stroke="#000000" points="750.9948,-176.5001 740.9948,-180 750.9948,-183.5001 750.9948,-176.5001"/>
</g>
<!-- UserFormComponent -->
<g id="node2" class="node">
<title>UserFormComponent</title>
<polygon fill="#ffffb3" stroke="#000000" points="1297.0926,-122 1158.9074,-122 1158.9074,-86 1297.0926,-86 1297.0926,-122"/>
<text text-anchor="middle" x="1228" y="-99.8" font-family="Times,serif" font-size="14.00" fill="#000000">UserFormComponent</text>
</g>
<!-- UserFormComponent&#45;&gt;UserModule -->
<g id="edge2" class="edge">
<title>UserFormComponent&#45;&gt;UserModule</title>
<path fill="none" stroke="#000000" d="M1228,-122.1289C1228,-142.5724 1228,-173 1228,-173 1228,-173 751.3721,-173 751.3721,-173"/>
<polygon fill="#000000" stroke="#000000" points="751.3722,-169.5001 741.3721,-173 751.3721,-176.5001 751.3722,-169.5001"/>
</g>
<!-- UserListComponent -->
<g id="node3" class="node">
<title>UserListComponent</title>
<polygon fill="#ffffb3" stroke="#000000" points="1140.538,-122 1011.462,-122 1011.462,-86 1140.538,-86 1140.538,-122"/>
<text text-anchor="middle" x="1076" y="-99.8" font-family="Times,serif" font-size="14.00" fill="#000000">UserListComponent</text>
</g>
<!-- UserListComponent&#45;&gt;UserModule -->
<g id="edge3" class="edge">
<title>UserListComponent&#45;&gt;UserModule</title>
<path fill="none" stroke="#000000" d="M1076,-122.2667C1076,-140.5552 1076,-166 1076,-166 1076,-166 750.9934,-166 750.9934,-166"/>
<polygon fill="#000000" stroke="#000000" points="750.9934,-162.5001 740.9934,-166 750.9934,-169.5001 750.9934,-162.5001"/>
</g>
<!-- UserLoginComponent -->
<g id="node4" class="node">
<title>UserLoginComponent</title>
<polygon fill="#ffffb3" stroke="#000000" points="993.7021,-122 852.2979,-122 852.2979,-86 993.7021,-86 993.7021,-122"/>
<text text-anchor="middle" x="923" y="-99.8" font-family="Times,serif" font-size="14.00" fill="#000000">UserLoginComponent</text>
</g>
<!-- UserLoginComponent&#45;&gt;UserModule -->
<g id="edge4" class="edge">
<title>UserLoginComponent&#45;&gt;UserModule</title>
<path fill="none" stroke="#000000" d="M923,-122.0091C923,-138.0494 923,-159 923,-159 923,-159 751.116,-159 751.116,-159"/>
<polygon fill="#000000" stroke="#000000" points="751.1161,-155.5001 741.116,-159 751.116,-162.5001 751.1161,-155.5001"/>
</g>
<!-- UserRquireModule -->
<g id="node6" class="node">
<title>UserRquireModule</title>
<polygon fill="#8dd3c7" stroke="#000000" points="828.0786,-122 825.0786,-126 804.0786,-126 801.0786,-122 703.9214,-122 703.9214,-86 828.0786,-86 828.0786,-122"/>
<text text-anchor="middle" x="766" y="-99.8" font-family="Times,serif" font-size="14.00" fill="#000000">UserRquireModule</text>
</g>
<!-- UserRquireModule&#45;&gt;UserModule -->
<g id="edge5" class="edge">
<title>UserRquireModule&#45;&gt;UserModule</title>
<path fill="none" stroke="#000000" d="M722.4744,-122.1061C722.4744,-122.1061 722.4744,-140.991 722.4744,-140.991"/>
<polygon fill="#000000" stroke="#000000" points="718.9745,-140.9909 722.4744,-150.991 725.9745,-140.991 718.9745,-140.9909"/>
</g>
<!-- JwtToken -->
<g id="node7" class="node">
<title>JwtToken</title>
<ellipse fill="#fdb462" stroke="#000000" cx="631" cy="-104" rx="49.2376" ry="18"/>
<text text-anchor="middle" x="631" y="-99.8" font-family="Times,serif" font-size="14.00" fill="#000000">JwtToken</text>
</g>
<!-- JwtToken&#45;&gt;UserModule -->
<g id="edge6" class="edge">
<title>JwtToken&#45;&gt;UserModule</title>
<path fill="none" stroke="#000000" d="M667.5653,-116.226C667.5653,-116.226 667.5653,-140.683 667.5653,-140.683"/>
<polygon fill="#000000" stroke="#000000" points="664.0654,-140.683 667.5653,-150.683 671.0654,-140.683 664.0654,-140.683"/>
</g>
<!-- LoginForm -->
<g id="node8" class="node">
<title>LoginForm</title>
<ellipse fill="#fdb462" stroke="#000000" cx="509" cy="-104" rx="55.0575" ry="18"/>
<text text-anchor="middle" x="509" y="-99.8" font-family="Times,serif" font-size="14.00" fill="#000000">LoginForm</text>
</g>
<!-- LoginForm&#45;&gt;UserModule -->
<g id="edge7" class="edge">
<title>LoginForm&#45;&gt;UserModule</title>
<path fill="none" stroke="#000000" d="M509,-122.0091C509,-138.0494 509,-159 509,-159 509,-159 644.6396,-159 644.6396,-159"/>
<polygon fill="#000000" stroke="#000000" points="644.6396,-162.5001 654.6396,-159 644.6395,-155.5001 644.6396,-162.5001"/>
</g>
<!-- LoginHttpService -->
<g id="node9" class="node">
<title>LoginHttpService</title>
<ellipse fill="#fdb462" stroke="#000000" cx="356" cy="-104" rx="80.4557" ry="18"/>
<text text-anchor="middle" x="356" y="-99.8" font-family="Times,serif" font-size="14.00" fill="#000000">LoginHttpService</text>
</g>
<!-- LoginHttpService&#45;&gt;UserModule -->
<g id="edge8" class="edge">
<title>LoginHttpService&#45;&gt;UserModule</title>
<path fill="none" stroke="#000000" d="M356,-122.2667C356,-140.5552 356,-166 356,-166 356,-166 644.6855,-166 644.6855,-166"/>
<polygon fill="#000000" stroke="#000000" points="644.6855,-169.5001 654.6855,-166 644.6854,-162.5001 644.6855,-169.5001"/>
</g>
<!-- UserForm -->
<g id="node10" class="node">
<title>UserForm</title>
<ellipse fill="#fdb462" stroke="#000000" cx="208" cy="-104" rx="50.378" ry="18"/>
<text text-anchor="middle" x="208" y="-99.8" font-family="Times,serif" font-size="14.00" fill="#000000">UserForm</text>
</g>
<!-- UserForm&#45;&gt;UserModule -->
<g id="edge9" class="edge">
<title>UserForm&#45;&gt;UserModule</title>
<path fill="none" stroke="#000000" d="M208,-122.1289C208,-142.5724 208,-173 208,-173 208,-173 644.9452,-173 644.9452,-173"/>
<polygon fill="#000000" stroke="#000000" points="644.9453,-176.5001 654.9452,-173 644.9452,-169.5001 644.9453,-176.5001"/>
</g>
<!-- UserService -->
<g id="node11" class="node">
<title>UserService</title>
<ellipse fill="#fdb462" stroke="#000000" cx="82" cy="-104" rx="58.4415" ry="18"/>
<text text-anchor="middle" x="82" y="-99.8" font-family="Times,serif" font-size="14.00" fill="#000000">UserService</text>
</g>
<!-- UserService&#45;&gt;UserModule -->
<g id="edge10" class="edge">
<title>UserService&#45;&gt;UserModule</title>
<path fill="none" stroke="#000000" d="M82,-122.0109C82,-144.4852 82,-180 82,-180 82,-180 644.6841,-180 644.6841,-180"/>
<polygon fill="#000000" stroke="#000000" points="644.6841,-183.5001 654.6841,-180 644.684,-176.5001 644.6841,-183.5001"/>
</g>
</g>
</svg>
