<?xml version="1.0" encoding="UTF-8" standalone="no"?>
<!DOCTYPE svg PUBLIC "-//W3C//DTD SVG 1.1//EN"
 "http://www.w3.org/Graphics/SVG/1.1/DTD/svg11.dtd">
<!-- Generated by graphviz version 2.40.1 (20161225.0304)
 -->
<!-- Title: dependencies Pages: 1 -->
<svg width="803pt" height="211pt"
 viewBox="0.00 0.00 803.00 211.00" xmlns="http://www.w3.org/2000/svg" xmlns:xlink="http://www.w3.org/1999/xlink">
<g id="graph0" class="graph" transform="scale(1 1) rotate(0) translate(4 207)">
<title>dependencies</title>
<polygon fill="#ffffff" stroke="transparent" points="-4,4 -4,-207 799,-207 799,4 -4,4"/>
<text text-anchor="start" x="376.5091" y="-42.4" font-family="sans-serif" font-weight="bold" font-size="14.00" fill="#000000">Legend</text>
<polygon fill="#ffffb3" stroke="transparent" points="163.5,-10 163.5,-30 183.5,-30 183.5,-10 163.5,-10"/>
<text text-anchor="start" x="187.129" y="-15.4" font-family="sans-serif" font-size="14.00" fill="#000000"> &#160;Declarations</text>
<polygon fill="#8dd3c7" stroke="transparent" points="276.5,-10 276.5,-30 296.5,-30 296.5,-10 276.5,-10"/>
<text text-anchor="start" x="300.2251" y="-15.4" font-family="sans-serif" font-size="14.00" fill="#000000"> &#160;Module</text>
<polygon fill="#80b1d3" stroke="transparent" points="362.5,-10 362.5,-30 382.5,-30 382.5,-10 362.5,-10"/>
<text text-anchor="start" x="386.2812" y="-15.4" font-family="sans-serif" font-size="14.00" fill="#000000"> &#160;Bootstrap</text>
<polygon fill="#fdb462" stroke="transparent" points="459.5,-10 459.5,-30 479.5,-30 479.5,-10 459.5,-10"/>
<text text-anchor="start" x="483.1732" y="-15.4" font-family="sans-serif" font-size="14.00" fill="#000000"> &#160;Providers</text>
<polygon fill="#fb8072" stroke="transparent" points="555.5,-10 555.5,-30 575.5,-30 575.5,-10 555.5,-10"/>
<text text-anchor="start" x="579.2258" y="-15.4" font-family="sans-serif" font-size="14.00" fill="#000000"> &#160;Exports</text>
<g id="clust1" class="cluster">
<title>cluster_LocaleModule</title>
<polygon fill="none" stroke="#000000" stroke-dasharray="1,5" points="8,-70 8,-195 787,-195 787,-70 8,-70"/>
</g>
<g id="clust2" class="cluster">
<title>cluster_LocaleModule_declarations</title>
<polygon fill="none" stroke="#000000" points="316,-78 316,-130 779,-130 779,-78 316,-78"/>
</g>
<g id="clust6" class="cluster">
<title>cluster_LocaleModule_imports</title>
<polygon fill="none" stroke="#000000" points="156,-78 156,-130 308,-130 308,-78 156,-78"/>
</g>
<g id="clust9" class="cluster">
<title>cluster_LocaleModule_providers</title>
<polygon fill="none" stroke="#000000" points="16,-78 16,-130 148,-130 148,-78 16,-78"/>
</g>
<!-- LocaleComponent -->
<g id="node1" class="node">
<title>LocaleComponent</title>
<polygon fill="#ffffb3" stroke="#000000" points="770.9201,-122 651.0799,-122 651.0799,-86 770.9201,-86 770.9201,-122"/>
<text text-anchor="middle" x="711" y="-99.8" font-family="Times,serif" font-size="14.00" fill="#000000">LocaleComponent</text>
</g>
<!-- LocaleModule -->
<g id="node4" class="node">
<title>LocaleModule</title>
<polygon fill="#8dd3c7" stroke="#000000" points="443.6375,-187 440.6375,-191 419.6375,-191 416.6375,-187 346.3625,-187 346.3625,-151 443.6375,-151 443.6375,-187"/>
<text text-anchor="middle" x="395" y="-164.8" font-family="Times,serif" font-size="14.00" fill="#000000">LocaleModule</text>
</g>
<!-- LocaleComponent&#45;&gt;LocaleModule -->
<g id="edge1" class="edge">
<title>LocaleComponent&#45;&gt;LocaleModule</title>
<path fill="none" stroke="#000000" d="M711,-122.2843C711,-143.3211 711,-175 711,-175 711,-175 453.6825,-175 453.6825,-175"/>
<polygon fill="#000000" stroke="#000000" points="453.6825,-171.5001 443.6825,-175 453.6824,-178.5001 453.6825,-171.5001"/>
</g>
<!-- LocaleFormComponent -->
<g id="node2" class="node">
<title>LocaleFormComponent</title>
<polygon fill="#ffffb3" stroke="#000000" points="632.7534,-122 483.2466,-122 483.2466,-86 632.7534,-86 632.7534,-122"/>
<text text-anchor="middle" x="558" y="-99.8" font-family="Times,serif" font-size="14.00" fill="#000000">LocaleFormComponent</text>
</g>
<!-- LocaleFormComponent&#45;&gt;LocaleModule -->
<g id="edge2" class="edge">
<title>LocaleFormComponent&#45;&gt;LocaleModule</title>
<path fill="none" stroke="#000000" d="M558,-122.0225C558,-139.3734 558,-163 558,-163 558,-163 453.9054,-163 453.9054,-163"/>
<polygon fill="#000000" stroke="#000000" points="453.9054,-159.5001 443.9054,-163 453.9053,-166.5001 453.9054,-159.5001"/>
</g>
<!-- LocaleListComponent -->
<g id="node3" class="node">
<title>LocaleListComponent</title>
<polygon fill="#ffffb3" stroke="#000000" points="465.6979,-122 324.3021,-122 324.3021,-86 465.6979,-86 465.6979,-122"/>
<text text-anchor="middle" x="395" y="-99.8" font-family="Times,serif" font-size="14.00" fill="#000000">LocaleListComponent</text>
</g>
<!-- LocaleListComponent&#45;&gt;LocaleModule -->
<g id="edge3" class="edge">
<title>LocaleListComponent&#45;&gt;LocaleModule</title>
<path fill="none" stroke="#000000" d="M395,-122.1061C395,-122.1061 395,-140.991 395,-140.991"/>
<polygon fill="#000000" stroke="#000000" points="391.5001,-140.9909 395,-150.991 398.5001,-140.991 391.5001,-140.9909"/>
</g>
<!-- LocaleRquireModule -->
<g id="node5" class="node">
<title>LocaleRquireModule</title>
<polygon fill="#8dd3c7" stroke="#000000" points="299.7395,-122 296.7395,-126 275.7395,-126 272.7395,-122 164.2605,-122 164.2605,-86 299.7395,-86 299.7395,-122"/>
<text text-anchor="middle" x="232" y="-99.8" font-family="Times,serif" font-size="14.00" fill="#000000">LocaleRquireModule</text>
</g>
<!-- LocaleRquireModule&#45;&gt;LocaleModule -->
<g id="edge4" class="edge">
<title>LocaleRquireModule&#45;&gt;LocaleModule</title>
<path fill="none" stroke="#000000" d="M232,-122.0225C232,-139.3734 232,-163 232,-163 232,-163 336.0946,-163 336.0946,-163"/>
<polygon fill="#000000" stroke="#000000" points="336.0947,-166.5001 346.0946,-163 336.0946,-159.5001 336.0947,-166.5001"/>
</g>
<!-- LocaleForm -->
<g id="node6" class="node">
<title>LocaleForm</title>
<ellipse fill="#fdb462" stroke="#000000" cx="82" cy="-104" rx="58.4648" ry="18"/>
<text text-anchor="middle" x="82" y="-99.8" font-family="Times,serif" font-size="14.00" fill="#000000">LocaleForm</text>
</g>
<!-- LocaleForm&#45;&gt;LocaleModule -->
<g id="edge5" class="edge">
<title>LocaleForm&#45;&gt;LocaleModule</title>
<path fill="none" stroke="#000000" d="M82,-122.2843C82,-143.3211 82,-175 82,-175 82,-175 336.0938,-175 336.0938,-175"/>
<polygon fill="#000000" stroke="#000000" points="336.0938,-178.5001 346.0938,-175 336.0937,-171.5001 336.0938,-178.5001"/>
</g>
</g>
</svg>
