<?xml version="1.0" encoding="UTF-8" standalone="no"?>
<!DOCTYPE svg PUBLIC "-//W3C//DTD SVG 1.1//EN"
 "http://www.w3.org/Graphics/SVG/1.1/DTD/svg11.dtd">
<!-- Generated by graphviz version 2.40.1 (20161225.0304)
 -->
<!-- Title: dependencies Pages: 1 -->
<svg width="860pt" height="211pt"
 viewBox="0.00 0.00 860.00 211.00" xmlns="http://www.w3.org/2000/svg" xmlns:xlink="http://www.w3.org/1999/xlink">
<g id="graph0" class="graph" transform="scale(1 1) rotate(0) translate(4 207)">
<title>dependencies</title>
<polygon fill="#ffffff" stroke="transparent" points="-4,4 -4,-207 856,-207 856,4 -4,4"/>
<text text-anchor="start" x="405.0091" y="-42.4" font-family="sans-serif" font-weight="bold" font-size="14.00" fill="#000000">Legend</text>
<polygon fill="#ffffb3" stroke="transparent" points="192,-10 192,-30 212,-30 212,-10 192,-10"/>
<text text-anchor="start" x="215.629" y="-15.4" font-family="sans-serif" font-size="14.00" fill="#000000"> &#160;Declarations</text>
<polygon fill="#8dd3c7" stroke="transparent" points="305,-10 305,-30 325,-30 325,-10 305,-10"/>
<text text-anchor="start" x="328.7251" y="-15.4" font-family="sans-serif" font-size="14.00" fill="#000000"> &#160;Module</text>
<polygon fill="#80b1d3" stroke="transparent" points="391,-10 391,-30 411,-30 411,-10 391,-10"/>
<text text-anchor="start" x="414.7812" y="-15.4" font-family="sans-serif" font-size="14.00" fill="#000000"> &#160;Bootstrap</text>
<polygon fill="#fdb462" stroke="transparent" points="488,-10 488,-30 508,-30 508,-10 488,-10"/>
<text text-anchor="start" x="511.6732" y="-15.4" font-family="sans-serif" font-size="14.00" fill="#000000"> &#160;Providers</text>
<polygon fill="#fb8072" stroke="transparent" points="584,-10 584,-30 604,-30 604,-10 584,-10"/>
<text text-anchor="start" x="607.7258" y="-15.4" font-family="sans-serif" font-size="14.00" fill="#000000"> &#160;Exports</text>
<g id="clust1" class="cluster">
<title>cluster_KeyModule</title>
<polygon fill="none" stroke="#000000" stroke-dasharray="1,5" points="8,-70 8,-195 844,-195 844,-70 8,-70"/>
</g>
<g id="clust2" class="cluster">
<title>cluster_KeyModule_declarations</title>
<polygon fill="none" stroke="#000000" points="418,-78 418,-130 836,-130 836,-78 418,-78"/>
</g>
<g id="clust6" class="cluster">
<title>cluster_KeyModule_imports</title>
<polygon fill="none" stroke="#000000" points="266,-78 266,-130 410,-130 410,-78 266,-78"/>
</g>
<g id="clust9" class="cluster">
<title>cluster_KeyModule_providers</title>
<polygon fill="none" stroke="#000000" points="16,-78 16,-130 258,-130 258,-78 16,-78"/>
</g>
<!-- KeyComponent -->
<g id="node1" class="node">
<title>KeyComponent</title>
<polygon fill="#ffffb3" stroke="#000000" points="828.1542,-122 723.8458,-122 723.8458,-86 828.1542,-86 828.1542,-122"/>
<text text-anchor="middle" x="776" y="-99.8" font-family="Times,serif" font-size="14.00" fill="#000000">KeyComponent</text>
</g>
<!-- KeyModule -->
<g id="node4" class="node">
<title>KeyModule</title>
<polygon fill="#8dd3c7" stroke="#000000" points="454.3711,-187 451.3711,-191 430.3711,-191 427.3711,-187 371.6289,-187 371.6289,-151 454.3711,-151 454.3711,-187"/>
<text text-anchor="middle" x="413" y="-164.8" font-family="Times,serif" font-size="14.00" fill="#000000">KeyModule</text>
</g>
<!-- KeyComponent&#45;&gt;KeyModule -->
<g id="edge1" class="edge">
<title>KeyComponent&#45;&gt;KeyModule</title>
<path fill="none" stroke="#000000" d="M776,-122.2843C776,-143.3211 776,-175 776,-175 776,-175 464.6407,-175 464.6407,-175"/>
<polygon fill="#000000" stroke="#000000" points="464.6408,-171.5001 454.6407,-175 464.6407,-178.5001 464.6408,-171.5001"/>
</g>
<!-- KeyFormComponent -->
<g id="node2" class="node">
<title>KeyFormComponent</title>
<polygon fill="#ffffb3" stroke="#000000" points="705.4874,-122 570.5126,-122 570.5126,-86 705.4874,-86 705.4874,-122"/>
<text text-anchor="middle" x="638" y="-99.8" font-family="Times,serif" font-size="14.00" fill="#000000">KeyFormComponent</text>
</g>
<!-- KeyFormComponent&#45;&gt;KeyModule -->
<g id="edge2" class="edge">
<title>KeyFormComponent&#45;&gt;KeyModule</title>
<path fill="none" stroke="#000000" d="M638,-122.0225C638,-139.3734 638,-163 638,-163 638,-163 464.5307,-163 464.5307,-163"/>
<polygon fill="#000000" stroke="#000000" points="464.5307,-159.5001 454.5307,-163 464.5306,-166.5001 464.5307,-159.5001"/>
</g>
<!-- KeyListComponent -->
<g id="node3" class="node">
<title>KeyListComponent</title>
<polygon fill="#ffffb3" stroke="#000000" points="552.4327,-122 425.5673,-122 425.5673,-86 552.4327,-86 552.4327,-122"/>
<text text-anchor="middle" x="489" y="-99.8" font-family="Times,serif" font-size="14.00" fill="#000000">KeyListComponent</text>
</g>
<!-- KeyListComponent&#45;&gt;KeyModule -->
<g id="edge3" class="edge">
<title>KeyListComponent&#45;&gt;KeyModule</title>
<path fill="none" stroke="#000000" d="M440.1098,-122.1061C440.1098,-122.1061 440.1098,-140.991 440.1098,-140.991"/>
<polygon fill="#000000" stroke="#000000" points="436.6098,-140.9909 440.1098,-150.991 443.6098,-140.991 436.6098,-140.9909"/>
</g>
<!-- KeyRequireModule -->
<g id="node5" class="node">
<title>KeyRequireModule</title>
<polygon fill="#8dd3c7" stroke="#000000" points="401.6881,-122 398.6881,-126 377.6881,-126 374.6881,-122 274.3119,-122 274.3119,-86 401.6881,-86 401.6881,-122"/>
<text text-anchor="middle" x="338" y="-99.8" font-family="Times,serif" font-size="14.00" fill="#000000">KeyRequireModule</text>
</g>
<!-- KeyRequireModule&#45;&gt;KeyModule -->
<g id="edge4" class="edge">
<title>KeyRequireModule&#45;&gt;KeyModule</title>
<path fill="none" stroke="#000000" d="M386.5793,-122.1061C386.5793,-122.1061 386.5793,-140.991 386.5793,-140.991"/>
<polygon fill="#000000" stroke="#000000" points="383.0793,-140.9909 386.5793,-150.991 390.0793,-140.991 383.0793,-140.9909"/>
</g>
<!-- KeyForm -->
<g id="node6" class="node">
<title>KeyForm</title>
<ellipse fill="#fdb462" stroke="#000000" cx="202" cy="-104" rx="48.0935" ry="18"/>
<text text-anchor="middle" x="202" y="-99.8" font-family="Times,serif" font-size="14.00" fill="#000000">KeyForm</text>
</g>
<!-- KeyForm&#45;&gt;KeyModule -->
<g id="edge5" class="edge">
<title>KeyForm&#45;&gt;KeyModule</title>
<path fill="none" stroke="#000000" d="M202,-122.0225C202,-139.3734 202,-163 202,-163 202,-163 361.5649,-163 361.5649,-163"/>
<polygon fill="#000000" stroke="#000000" points="361.565,-166.5001 371.5649,-163 361.5649,-159.5001 361.565,-166.5001"/>
</g>
<!-- KeyService -->
<g id="node7" class="node">
<title>KeyService</title>
<ellipse fill="#fdb462" stroke="#000000" cx="80" cy="-104" rx="56.157" ry="18"/>
<text text-anchor="middle" x="80" y="-99.8" font-family="Times,serif" font-size="14.00" fill="#000000">KeyService</text>
</g>
<!-- KeyService&#45;&gt;KeyModule -->
<g id="edge6" class="edge">
<title>KeyService&#45;&gt;KeyModule</title>
<path fill="none" stroke="#000000" d="M80,-122.2843C80,-143.3211 80,-175 80,-175 80,-175 361.4986,-175 361.4986,-175"/>
<polygon fill="#000000" stroke="#000000" points="361.4987,-178.5001 371.4986,-175 361.4986,-171.5001 361.4987,-178.5001"/>
</g>
</g>
</svg>
