<?xml version="1.0" encoding="UTF-8" standalone="no"?>
<!DOCTYPE svg PUBLIC "-//W3C//DTD SVG 1.1//EN"
 "http://www.w3.org/Graphics/SVG/1.1/DTD/svg11.dtd">
<!-- Generated by graphviz version 2.40.1 (20161225.0304)
 -->
<!-- Title: dependencies Pages: 1 -->
<svg width="947pt" height="211pt"
 viewBox="0.00 0.00 947.00 211.00" xmlns="http://www.w3.org/2000/svg" xmlns:xlink="http://www.w3.org/1999/xlink">
<g id="graph0" class="graph" transform="scale(1 1) rotate(0) translate(4 207)">
<title>dependencies</title>
<polygon fill="#ffffff" stroke="transparent" points="-4,4 -4,-207 943,-207 943,4 -4,4"/>
<text text-anchor="start" x="448.5091" y="-42.4" font-family="sans-serif" font-weight="bold" font-size="14.00" fill="#000000">Legend</text>
<polygon fill="#ffffb3" stroke="transparent" points="235.5,-10 235.5,-30 255.5,-30 255.5,-10 235.5,-10"/>
<text text-anchor="start" x="259.129" y="-15.4" font-family="sans-serif" font-size="14.00" fill="#000000"> &#160;Declarations</text>
<polygon fill="#8dd3c7" stroke="transparent" points="348.5,-10 348.5,-30 368.5,-30 368.5,-10 348.5,-10"/>
<text text-anchor="start" x="372.2251" y="-15.4" font-family="sans-serif" font-size="14.00" fill="#000000"> &#160;Module</text>
<polygon fill="#80b1d3" stroke="transparent" points="434.5,-10 434.5,-30 454.5,-30 454.5,-10 434.5,-10"/>
<text text-anchor="start" x="458.2812" y="-15.4" font-family="sans-serif" font-size="14.00" fill="#000000"> &#160;Bootstrap</text>
<polygon fill="#fdb462" stroke="transparent" points="531.5,-10 531.5,-30 551.5,-30 551.5,-10 531.5,-10"/>
<text text-anchor="start" x="555.1732" y="-15.4" font-family="sans-serif" font-size="14.00" fill="#000000"> &#160;Providers</text>
<polygon fill="#fb8072" stroke="transparent" points="627.5,-10 627.5,-30 647.5,-30 647.5,-10 627.5,-10"/>
<text text-anchor="start" x="651.2258" y="-15.4" font-family="sans-serif" font-size="14.00" fill="#000000"> &#160;Exports</text>
<g id="clust1" class="cluster">
<title>cluster_TranslationModule</title>
<polygon fill="none" stroke="#000000" stroke-dasharray="1,5" points="8,-70 8,-195 931,-195 931,-70 8,-70"/>
</g>
<g id="clust2" class="cluster">
<title>cluster_TranslationModule_declarations</title>
<polygon fill="none" stroke="#000000" points="384,-78 384,-130 923,-130 923,-78 384,-78"/>
</g>
<g id="clust6" class="cluster">
<title>cluster_TranslationModule_imports</title>
<polygon fill="none" stroke="#000000" points="192,-78 192,-130 376,-130 376,-78 192,-78"/>
</g>
<g id="clust9" class="cluster">
<title>cluster_TranslationModule_providers</title>
<polygon fill="none" stroke="#000000" points="16,-78 16,-130 184,-130 184,-78 16,-78"/>
</g>
<!-- TranslationComponent -->
<g id="node1" class="node">
<title>TranslationComponent</title>
<polygon fill="#ffffb3" stroke="#000000" points="914.5912,-122 769.4088,-122 769.4088,-86 914.5912,-86 914.5912,-122"/>
<text text-anchor="middle" x="842" y="-99.8" font-family="Times,serif" font-size="14.00" fill="#000000">TranslationComponent</text>
</g>
<!-- TranslationModule -->
<g id="node4" class="node">
<title>TranslationModule</title>
<polygon fill="#8dd3c7" stroke="#000000" points="536.809,-187 533.809,-191 512.809,-191 509.809,-187 413.191,-187 413.191,-151 536.809,-151 536.809,-187"/>
<text text-anchor="middle" x="475" y="-164.8" font-family="Times,serif" font-size="14.00" fill="#000000">TranslationModule</text>
</g>
<!-- TranslationComponent&#45;&gt;TranslationModule -->
<g id="edge1" class="edge">
<title>TranslationComponent&#45;&gt;TranslationModule</title>
<path fill="none" stroke="#000000" d="M842,-122.2843C842,-143.3211 842,-175 842,-175 842,-175 546.8415,-175 546.8415,-175"/>
<polygon fill="#000000" stroke="#000000" points="546.8416,-171.5001 536.8415,-175 546.8415,-178.5001 546.8416,-171.5001"/>
</g>
<!-- TranslationFormComponent -->
<g id="node2" class="node">
<title>TranslationFormComponent</title>
<polygon fill="#ffffb3" stroke="#000000" points="751.9255,-122 576.0745,-122 576.0745,-86 751.9255,-86 751.9255,-122"/>
<text text-anchor="middle" x="664" y="-99.8" font-family="Times,serif" font-size="14.00" fill="#000000">TranslationFormComponent</text>
</g>
<!-- TranslationFormComponent&#45;&gt;TranslationModule -->
<g id="edge2" class="edge">
<title>TranslationFormComponent&#45;&gt;TranslationModule</title>
<path fill="none" stroke="#000000" d="M664,-122.0225C664,-139.3734 664,-163 664,-163 664,-163 546.8857,-163 546.8857,-163"/>
<polygon fill="#000000" stroke="#000000" points="546.8857,-159.5001 536.8857,-163 546.8856,-166.5001 546.8857,-159.5001"/>
</g>
<!-- TranslationListComponent -->
<g id="node3" class="node">
<title>TranslationListComponent</title>
<polygon fill="#ffffb3" stroke="#000000" points="558.3697,-122 391.6303,-122 391.6303,-86 558.3697,-86 558.3697,-122"/>
<text text-anchor="middle" x="475" y="-99.8" font-family="Times,serif" font-size="14.00" fill="#000000">TranslationListComponent</text>
</g>
<!-- TranslationListComponent&#45;&gt;TranslationModule -->
<g id="edge3" class="edge">
<title>TranslationListComponent&#45;&gt;TranslationModule</title>
<path fill="none" stroke="#000000" d="M475,-122.1061C475,-122.1061 475,-140.991 475,-140.991"/>
<polygon fill="#000000" stroke="#000000" points="471.5001,-140.9909 475,-150.991 478.5001,-140.991 471.5001,-140.9909"/>
</g>
<!-- TranslationRequireModule -->
<g id="node5" class="node">
<title>TranslationRequireModule</title>
<polygon fill="#8dd3c7" stroke="#000000" points="367.626,-122 364.626,-126 343.626,-126 340.626,-122 200.374,-122 200.374,-86 367.626,-86 367.626,-122"/>
<text text-anchor="middle" x="284" y="-99.8" font-family="Times,serif" font-size="14.00" fill="#000000">TranslationRequireModule</text>
</g>
<!-- TranslationRequireModule&#45;&gt;TranslationModule -->
<g id="edge4" class="edge">
<title>TranslationRequireModule&#45;&gt;TranslationModule</title>
<path fill="none" stroke="#000000" d="M284,-122.0225C284,-139.3734 284,-163 284,-163 284,-163 403.2515,-163 403.2515,-163"/>
<polygon fill="#000000" stroke="#000000" points="403.2516,-166.5001 413.2515,-163 403.2515,-159.5001 403.2516,-166.5001"/>
</g>
<!-- TranslationForm -->
<g id="node6" class="node">
<title>TranslationForm</title>
<ellipse fill="#fdb462" stroke="#000000" cx="100" cy="-104" rx="75.8798" ry="18"/>
<text text-anchor="middle" x="100" y="-99.8" font-family="Times,serif" font-size="14.00" fill="#000000">TranslationForm</text>
</g>
<!-- TranslationForm&#45;&gt;TranslationModule -->
<g id="edge5" class="edge">
<title>TranslationForm&#45;&gt;TranslationModule</title>
<path fill="none" stroke="#000000" d="M100,-122.2843C100,-143.3211 100,-175 100,-175 100,-175 403.0764,-175 403.0764,-175"/>
<polygon fill="#000000" stroke="#000000" points="403.0764,-178.5001 413.0764,-175 403.0763,-171.5001 403.0764,-178.5001"/>
</g>
</g>
</svg>
