<?xml version="1.0" encoding="UTF-8" standalone="no"?>
<!DOCTYPE svg PUBLIC "-//W3C//DTD SVG 1.1//EN"
 "http://www.w3.org/Graphics/SVG/1.1/DTD/svg11.dtd">
<!-- Generated by graphviz version 2.40.1 (20161225.0304)
 -->
<!-- Title: dependencies Pages: 1 -->
<svg width="610pt" height="211pt"
 viewBox="0.00 0.00 610.00 211.00" xmlns="http://www.w3.org/2000/svg" xmlns:xlink="http://www.w3.org/1999/xlink">
<g id="graph0" class="graph" transform="scale(1 1) rotate(0) translate(4 207)">
<title>dependencies</title>
<polygon fill="#ffffff" stroke="transparent" points="-4,4 -4,-207 606,-207 606,4 -4,4"/>
<text text-anchor="start" x="280.0091" y="-42.4" font-family="sans-serif" font-weight="bold" font-size="14.00" fill="#000000">Legend</text>
<polygon fill="#ffffb3" stroke="transparent" points="67,-10 67,-30 87,-30 87,-10 67,-10"/>
<text text-anchor="start" x="90.629" y="-15.4" font-family="sans-serif" font-size="14.00" fill="#000000"> &#160;Declarations</text>
<polygon fill="#8dd3c7" stroke="transparent" points="180,-10 180,-30 200,-30 200,-10 180,-10"/>
<text text-anchor="start" x="203.7251" y="-15.4" font-family="sans-serif" font-size="14.00" fill="#000000"> &#160;Module</text>
<polygon fill="#80b1d3" stroke="transparent" points="266,-10 266,-30 286,-30 286,-10 266,-10"/>
<text text-anchor="start" x="289.7812" y="-15.4" font-family="sans-serif" font-size="14.00" fill="#000000"> &#160;Bootstrap</text>
<polygon fill="#fdb462" stroke="transparent" points="363,-10 363,-30 383,-30 383,-10 363,-10"/>
<text text-anchor="start" x="386.6732" y="-15.4" font-family="sans-serif" font-size="14.00" fill="#000000"> &#160;Providers</text>
<polygon fill="#fb8072" stroke="transparent" points="459,-10 459,-30 479,-30 479,-10 459,-10"/>
<text text-anchor="start" x="482.7258" y="-15.4" font-family="sans-serif" font-size="14.00" fill="#000000"> &#160;Exports</text>
<g id="clust1" class="cluster">
<title>cluster_ResourceModule</title>
<polygon fill="none" stroke="#000000" stroke-dasharray="1,5" points="8,-70 8,-195 594,-195 594,-70 8,-70"/>
</g>
<g id="clust6" class="cluster">
<title>cluster_ResourceModule_providers</title>
<polygon fill="none" stroke="#000000" points="16,-78 16,-130 586,-130 586,-78 16,-78"/>
</g>
<!-- ProjectResourceService -->
<g id="node1" class="node">
<title>ProjectResourceService</title>
<ellipse fill="#fdb462" stroke="#000000" cx="475" cy="-104" rx="103.0443" ry="18"/>
<text text-anchor="middle" x="475" y="-99.8" font-family="Times,serif" font-size="14.00" fill="#000000">ProjectResourceService</text>
</g>
<!-- ResourceModule -->
<g id="node4" class="node">
<title>ResourceModule</title>
<polygon fill="#8dd3c7" stroke="#000000" points="333.636,-187 330.636,-191 309.636,-191 306.636,-187 222.364,-187 222.364,-151 333.636,-151 333.636,-187"/>
<text text-anchor="middle" x="278" y="-164.8" font-family="Times,serif" font-size="14.00" fill="#000000">ResourceModule</text>
</g>
<!-- ProjectResourceService&#45;&gt;ResourceModule -->
<g id="edge1" class="edge">
<title>ProjectResourceService&#45;&gt;ResourceModule</title>
<path fill="none" stroke="#000000" d="M475,-122.1061C475,-141.3391 475,-169 475,-169 475,-169 343.6624,-169 343.6624,-169"/>
<polygon fill="#000000" stroke="#000000" points="343.6624,-165.5001 333.6624,-169 343.6623,-172.5001 343.6624,-165.5001"/>
</g>
<!-- ResourceService -->
<g id="node2" class="node">
<title>ResourceService</title>
<ellipse fill="#fdb462" stroke="#000000" cx="278" cy="-104" rx="75.8393" ry="18"/>
<text text-anchor="middle" x="278" y="-99.8" font-family="Times,serif" font-size="14.00" fill="#000000">ResourceService</text>
</g>
<!-- ResourceService&#45;&gt;ResourceModule -->
<g id="edge2" class="edge">
<title>ResourceService&#45;&gt;ResourceModule</title>
<path fill="none" stroke="#000000" d="M278,-122.1061C278,-122.1061 278,-140.991 278,-140.991"/>
<polygon fill="#000000" stroke="#000000" points="274.5001,-140.9909 278,-150.991 281.5001,-140.991 274.5001,-140.9909"/>
</g>
<!-- ResourcesService -->
<g id="node3" class="node">
<title>ResourcesService</title>
<ellipse fill="#fdb462" stroke="#000000" cx="104" cy="-104" rx="79.8507" ry="18"/>
<text text-anchor="middle" x="104" y="-99.8" font-family="Times,serif" font-size="14.00" fill="#000000">ResourcesService</text>
</g>
<!-- ResourcesService&#45;&gt;ResourceModule -->
<g id="edge3" class="edge">
<title>ResourcesService&#45;&gt;ResourceModule</title>
<path fill="none" stroke="#000000" d="M104,-122.1061C104,-141.3391 104,-169 104,-169 104,-169 211.9875,-169 211.9875,-169"/>
<polygon fill="#000000" stroke="#000000" points="211.9876,-172.5001 221.9875,-169 211.9875,-165.5001 211.9876,-172.5001"/>
</g>
</g>
</svg>
