<?xml version="1.0" encoding="UTF-8" standalone="no"?>
<!DOCTYPE svg PUBLIC "-//W3C//DTD SVG 1.1//EN"
 "http://www.w3.org/Graphics/SVG/1.1/DTD/svg11.dtd">
<!-- Generated by graphviz version 2.40.1 (20161225.0304)
 -->
<!-- Title: dependencies Pages: 1 -->
<svg width="1798pt" height="284pt"
 viewBox="0.00 0.00 1798.00 284.00" xmlns="http://www.w3.org/2000/svg" xmlns:xlink="http://www.w3.org/1999/xlink">
<g id="graph0" class="graph" transform="scale(1 1) rotate(0) translate(4 280)">
<title>dependencies</title>
<polygon fill="#ffffff" stroke="transparent" points="-4,4 -4,-280 1794,-280 1794,4 -4,4"/>
<text text-anchor="start" x="874.0091" y="-42.4" font-family="sans-serif" font-weight="bold" font-size="14.00" fill="#000000">Legend</text>
<polygon fill="#ffffb3" stroke="transparent" points="661,-10 661,-30 681,-30 681,-10 661,-10"/>
<text text-anchor="start" x="684.629" y="-15.4" font-family="sans-serif" font-size="14.00" fill="#000000"> &#160;Declarations</text>
<polygon fill="#8dd3c7" stroke="transparent" points="774,-10 774,-30 794,-30 794,-10 774,-10"/>
<text text-anchor="start" x="797.7251" y="-15.4" font-family="sans-serif" font-size="14.00" fill="#000000"> &#160;Module</text>
<polygon fill="#80b1d3" stroke="transparent" points="860,-10 860,-30 880,-30 880,-10 860,-10"/>
<text text-anchor="start" x="883.7812" y="-15.4" font-family="sans-serif" font-size="14.00" fill="#000000"> &#160;Bootstrap</text>
<polygon fill="#fdb462" stroke="transparent" points="957,-10 957,-30 977,-30 977,-10 957,-10"/>
<text text-anchor="start" x="980.6732" y="-15.4" font-family="sans-serif" font-size="14.00" fill="#000000"> &#160;Providers</text>
<polygon fill="#fb8072" stroke="transparent" points="1053,-10 1053,-30 1073,-30 1073,-10 1053,-10"/>
<text text-anchor="start" x="1076.7258" y="-15.4" font-family="sans-serif" font-size="14.00" fill="#000000"> &#160;Exports</text>
<g id="clust1" class="cluster">
<title>cluster_AppModule</title>
<polygon fill="none" stroke="#000000" stroke-dasharray="1,5" points="8,-70 8,-268 1782,-268 1782,-70 8,-70"/>
</g>
<g id="clust2" class="cluster">
<title>cluster_AppModule_declarations</title>
<polygon fill="none" stroke="#000000" points="1652,-78 1652,-130 1774,-130 1774,-78 1652,-78"/>
</g>
<g id="clust4" class="cluster">
<title>cluster_AppModule_imports</title>
<polygon fill="none" stroke="#000000" points="554,-78 554,-130 1644,-130 1644,-78 554,-78"/>
</g>
<g id="clust5" class="cluster">
<title>cluster_AppModule_exports</title>
<polygon fill="none" stroke="#000000" points="822,-208 822,-260 992,-260 992,-208 822,-208"/>
</g>
<g id="clust6" class="cluster">
<title>cluster_AppModule_bootstrap</title>
<polygon fill="none" stroke="#000000" points="1000,-208 1000,-260 1124,-260 1124,-208 1000,-208"/>
</g>
<g id="clust7" class="cluster">
<title>cluster_AppModule_providers</title>
<polygon fill="none" stroke="#000000" points="16,-78 16,-130 546,-130 546,-78 16,-78"/>
</g>
<!-- AppComponent -->
<g id="node1" class="node">
<title>AppComponent</title>
<polygon fill="#ffffb3" stroke="#000000" points="1765.9399,-122 1660.0601,-122 1660.0601,-86 1765.9399,-86 1765.9399,-122"/>
<text text-anchor="middle" x="1713" y="-99.8" font-family="Times,serif" font-size="14.00" fill="#000000">AppComponent</text>
</g>
<!-- AppModule -->
<g id="node2" class="node">
<title>AppModule</title>
<polygon fill="#8dd3c7" stroke="#000000" points="1025.6571,-187 1022.6571,-191 1001.6571,-191 998.6571,-187 942.3429,-187 942.3429,-151 1025.6571,-151 1025.6571,-187"/>
<text text-anchor="middle" x="984" y="-164.8" font-family="Times,serif" font-size="14.00" fill="#000000">AppModule</text>
</g>
<!-- AppComponent&#45;&gt;AppModule -->
<g id="edge1" class="edge">
<title>AppComponent&#45;&gt;AppModule</title>
<path fill="none" stroke="#000000" d="M1713,-122.0908C1713,-145.1328 1713,-182 1713,-182 1713,-182 1035.8125,-182 1035.8125,-182"/>
<polygon fill="#000000" stroke="#000000" points="1035.8126,-178.5001 1025.8125,-182 1035.8125,-185.5001 1035.8126,-178.5001"/>
</g>
<!-- BreadcrumbComponent  -->
<g id="node12" class="node">
<title>BreadcrumbComponent </title>
<polygon fill="#fb8072" stroke="#000000" points="984.0246,-252 829.9754,-252 829.9754,-216 984.0246,-216 984.0246,-252"/>
<text text-anchor="middle" x="907" y="-229.8" font-family="Times,serif" font-size="14.00" fill="#000000">BreadcrumbComponent </text>
</g>
<!-- AppModule&#45;&gt;BreadcrumbComponent  -->
<g id="edge11" class="edge">
<title>AppModule&#45;&gt;BreadcrumbComponent </title>
<path fill="none" stroke="#000000" stroke-dasharray="5,2" d="M963.0921,-187.1061C963.0921,-187.1061 963.0921,-205.991 963.0921,-205.991"/>
<polygon fill="#000000" stroke="#000000" points="959.5921,-205.9909 963.0921,-215.991 966.5921,-205.991 959.5921,-205.9909"/>
</g>
<!-- AppComponent  -->
<g id="node13" class="node">
<title>AppComponent </title>
<polygon fill="#80b1d3" stroke="#000000" points="1116.439,-252 1007.561,-252 1007.561,-216 1116.439,-216 1116.439,-252"/>
<text text-anchor="middle" x="1062" y="-229.8" font-family="Times,serif" font-size="14.00" fill="#000000">AppComponent </text>
</g>
<!-- AppModule&#45;&gt;AppComponent  -->
<g id="edge12" class="edge">
<title>AppModule&#45;&gt;AppComponent </title>
<path fill="none" stroke="#000000" stroke-dasharray="1,5" d="M1016.6794,-187.1061C1016.6794,-187.1061 1016.6794,-205.991 1016.6794,-205.991"/>
<polygon fill="#000000" stroke="#000000" points="1013.1794,-205.9909 1016.6794,-215.991 1020.1794,-205.991 1013.1794,-205.9909"/>
</g>
<!-- BreadcrumbModule -->
<g id="node3" class="node">
<title>BreadcrumbModule</title>
<polygon fill="#8dd3c7" stroke="#000000" points="1636.2423,-122 1633.2423,-126 1612.2423,-126 1609.2423,-122 1507.7577,-122 1507.7577,-86 1636.2423,-86 1636.2423,-122"/>
<text text-anchor="middle" x="1572" y="-99.8" font-family="Times,serif" font-size="14.00" fill="#000000">BreadcrumbModule</text>
</g>
<!-- BreadcrumbModule&#45;&gt;AppModule -->
<g id="edge2" class="edge">
<title>BreadcrumbModule&#45;&gt;AppModule</title>
<path fill="none" stroke="#000000" d="M1572,-122.0449C1572,-143.6623 1572,-177 1572,-177 1572,-177 1035.8161,-177 1035.8161,-177"/>
<polygon fill="#000000" stroke="#000000" points="1035.8162,-173.5001 1025.8161,-177 1035.8161,-180.5001 1035.8162,-173.5001"/>
</g>
<!-- HeaderModule -->
<g id="node4" class="node">
<title>HeaderModule</title>
<polygon fill="#8dd3c7" stroke="#000000" points="1489.9608,-122 1486.9608,-126 1465.9608,-126 1462.9608,-122 1390.0392,-122 1390.0392,-86 1489.9608,-86 1489.9608,-122"/>
<text text-anchor="middle" x="1440" y="-99.8" font-family="Times,serif" font-size="14.00" fill="#000000">HeaderModule</text>
</g>
<!-- HeaderModule&#45;&gt;AppModule -->
<g id="edge3" class="edge">
<title>HeaderModule&#45;&gt;AppModule</title>
<path fill="none" stroke="#000000" d="M1440,-122.2228C1440,-142.3652 1440,-172 1440,-172 1440,-172 1035.6758,-172 1035.6758,-172"/>
<polygon fill="#000000" stroke="#000000" points="1035.6758,-168.5001 1025.6758,-172 1035.6758,-175.5001 1035.6758,-168.5001"/>
</g>
<!-- KeyModule -->
<g id="node5" class="node">
<title>KeyModule</title>
<polygon fill="#8dd3c7" stroke="#000000" points="1372.3711,-122 1369.3711,-126 1348.3711,-126 1345.3711,-122 1289.6289,-122 1289.6289,-86 1372.3711,-86 1372.3711,-122"/>
<text text-anchor="middle" x="1331" y="-99.8" font-family="Times,serif" font-size="14.00" fill="#000000">KeyModule</text>
</g>
<!-- KeyModule&#45;&gt;AppModule -->
<g id="edge4" class="edge">
<title>KeyModule&#45;&gt;AppModule</title>
<path fill="none" stroke="#000000" d="M1331,-122.2222C1331,-140.8285 1331,-167 1331,-167 1331,-167 1035.8563,-167 1035.8563,-167"/>
<polygon fill="#000000" stroke="#000000" points="1035.8563,-163.5001 1025.8563,-167 1035.8563,-170.5001 1035.8563,-163.5001"/>
</g>
<!-- LocaleModule -->
<g id="node6" class="node">
<title>LocaleModule</title>
<polygon fill="#8dd3c7" stroke="#000000" points="1271.6375,-122 1268.6375,-126 1247.6375,-126 1244.6375,-122 1174.3625,-122 1174.3625,-86 1271.6375,-86 1271.6375,-122"/>
<text text-anchor="middle" x="1223" y="-99.8" font-family="Times,serif" font-size="14.00" fill="#000000">LocaleModule</text>
</g>
<!-- LocaleModule&#45;&gt;AppModule -->
<g id="edge5" class="edge">
<title>LocaleModule&#45;&gt;AppModule</title>
<path fill="none" stroke="#000000" d="M1223,-122.0336C1223,-139.0597 1223,-162 1223,-162 1223,-162 1035.9041,-162 1035.9041,-162"/>
<polygon fill="#000000" stroke="#000000" points="1035.9041,-158.5001 1025.9041,-162 1035.9041,-165.5001 1035.9041,-158.5001"/>
</g>
<!-- ProjectModule -->
<g id="node7" class="node">
<title>ProjectModule</title>
<polygon fill="#8dd3c7" stroke="#000000" points="1156.7036,-122 1153.7036,-126 1132.7036,-126 1129.7036,-122 1057.2964,-122 1057.2964,-86 1156.7036,-86 1156.7036,-122"/>
<text text-anchor="middle" x="1107" y="-99.8" font-family="Times,serif" font-size="14.00" fill="#000000">ProjectModule</text>
</g>
<!-- ProjectModule&#45;&gt;AppModule -->
<g id="edge6" class="edge">
<title>ProjectModule&#45;&gt;AppModule</title>
<path fill="none" stroke="#000000" d="M1086.9339,-122.2396C1086.9339,-137.5706 1086.9339,-157 1086.9339,-157 1086.9339,-157 1035.8672,-157 1035.8672,-157"/>
<polygon fill="#000000" stroke="#000000" points="1035.8672,-153.5001 1025.8672,-157 1035.8671,-160.5001 1035.8672,-153.5001"/>
</g>
<!-- ResourceModule -->
<g id="node8" class="node">
<title>ResourceModule</title>
<polygon fill="#8dd3c7" stroke="#000000" points="1039.636,-122 1036.636,-126 1015.636,-126 1012.636,-122 928.364,-122 928.364,-86 1039.636,-86 1039.636,-122"/>
<text text-anchor="middle" x="984" y="-99.8" font-family="Times,serif" font-size="14.00" fill="#000000">ResourceModule</text>
</g>
<!-- ResourceModule&#45;&gt;AppModule -->
<g id="edge7" class="edge">
<title>ResourceModule&#45;&gt;AppModule</title>
<path fill="none" stroke="#000000" d="M984,-122.1061C984,-122.1061 984,-140.991 984,-140.991"/>
<polygon fill="#000000" stroke="#000000" points="980.5001,-140.9909 984,-150.991 987.5001,-140.991 980.5001,-140.9909"/>
</g>
<!-- SidebarModule -->
<g id="node9" class="node">
<title>SidebarModule</title>
<polygon fill="#8dd3c7" stroke="#000000" points="910.3133,-122 907.3133,-126 886.3133,-126 883.3133,-122 807.6867,-122 807.6867,-86 910.3133,-86 910.3133,-122"/>
<text text-anchor="middle" x="859" y="-99.8" font-family="Times,serif" font-size="14.00" fill="#000000">SidebarModule</text>
</g>
<!-- SidebarModule&#45;&gt;AppModule -->
<g id="edge8" class="edge">
<title>SidebarModule&#45;&gt;AppModule</title>
<path fill="none" stroke="#000000" d="M870.0721,-122.2396C870.0721,-137.5706 870.0721,-157 870.0721,-157 870.0721,-157 932.2244,-157 932.2244,-157"/>
<polygon fill="#000000" stroke="#000000" points="932.2244,-160.5001 942.2244,-157 932.2243,-153.5001 932.2244,-160.5001"/>
</g>
<!-- TranslationModule -->
<g id="node10" class="node">
<title>TranslationModule</title>
<polygon fill="#8dd3c7" stroke="#000000" points="789.809,-122 786.809,-126 765.809,-126 762.809,-122 666.191,-122 666.191,-86 789.809,-86 789.809,-122"/>
<text text-anchor="middle" x="728" y="-99.8" font-family="Times,serif" font-size="14.00" fill="#000000">TranslationModule</text>
</g>
<!-- TranslationModule&#45;&gt;AppModule -->
<g id="edge9" class="edge">
<title>TranslationModule&#45;&gt;AppModule</title>
<path fill="none" stroke="#000000" d="M728,-122.0336C728,-139.0597 728,-162 728,-162 728,-162 932.2994,-162 932.2994,-162"/>
<polygon fill="#000000" stroke="#000000" points="932.2995,-165.5001 942.2994,-162 932.2994,-158.5001 932.2995,-165.5001"/>
</g>
<!-- UserModule -->
<g id="node11" class="node">
<title>UserModule</title>
<polygon fill="#8dd3c7" stroke="#000000" points="647.9762,-122 644.9762,-126 623.9762,-126 620.9762,-122 562.0238,-122 562.0238,-86 647.9762,-86 647.9762,-122"/>
<text text-anchor="middle" x="605" y="-99.8" font-family="Times,serif" font-size="14.00" fill="#000000">UserModule</text>
</g>
<!-- UserModule&#45;&gt;AppModule -->
<g id="edge10" class="edge">
<title>UserModule&#45;&gt;AppModule</title>
<path fill="none" stroke="#000000" d="M605,-122.2222C605,-140.8285 605,-167 605,-167 605,-167 931.9923,-167 931.9923,-167"/>
<polygon fill="#000000" stroke="#000000" points="931.9923,-170.5001 941.9923,-167 931.9923,-163.5001 931.9923,-170.5001"/>
</g>
<!-- AppResourceData -->
<g id="node14" class="node">
<title>AppResourceData</title>
<ellipse fill="#fdb462" stroke="#000000" cx="456" cy="-104" rx="81.6423" ry="18"/>
<text text-anchor="middle" x="456" y="-99.8" font-family="Times,serif" font-size="14.00" fill="#000000">AppResourceData</text>
</g>
<!-- AppResourceData&#45;&gt;AppModule -->
<g id="edge13" class="edge">
<title>AppResourceData&#45;&gt;AppModule</title>
<path fill="none" stroke="#000000" d="M456,-122.2228C456,-142.3652 456,-172 456,-172 456,-172 932.1274,-172 932.1274,-172"/>
<polygon fill="#000000" stroke="#000000" points="932.1274,-175.5001 942.1274,-172 932.1274,-168.5001 932.1274,-175.5001"/>
</g>
<!-- ResourceMockData -->
<g id="node15" class="node">
<title>ResourceMockData</title>
<ellipse fill="#fdb462" stroke="#000000" cx="268" cy="-104" rx="87.9413" ry="18"/>
<text text-anchor="middle" x="268" y="-99.8" font-family="Times,serif" font-size="14.00" fill="#000000">ResourceMockData</text>
</g>
<!-- ResourceMockData&#45;&gt;AppModule -->
<g id="edge14" class="edge">
<title>ResourceMockData&#45;&gt;AppModule</title>
<path fill="none" stroke="#000000" d="M268,-122.0449C268,-143.6623 268,-177 268,-177 268,-177 932.1474,-177 932.1474,-177"/>
<polygon fill="#000000" stroke="#000000" points="932.1474,-180.5001 942.1474,-177 932.1473,-173.5001 932.1474,-180.5001"/>
</g>
<!-- SidebarService -->
<g id="node16" class="node">
<title>SidebarService</title>
<ellipse fill="#fdb462" stroke="#000000" cx="93" cy="-104" rx="69.4781" ry="18"/>
<text text-anchor="middle" x="93" y="-99.8" font-family="Times,serif" font-size="14.00" fill="#000000">SidebarService</text>
</g>
<!-- SidebarService&#45;&gt;AppModule -->
<g id="edge15" class="edge">
<title>SidebarService&#45;&gt;AppModule</title>
<path fill="none" stroke="#000000" d="M93,-122.0908C93,-145.1328 93,-182 93,-182 93,-182 932.2203,-182 932.2203,-182"/>
<polygon fill="#000000" stroke="#000000" points="932.2203,-185.5001 942.2203,-182 932.2203,-178.5001 932.2203,-185.5001"/>
</g>
</g>
</svg>
