<?xml version="1.0" encoding="UTF-8" standalone="no"?>
<!DOCTYPE svg PUBLIC "-//W3C//DTD SVG 1.1//EN"
 "http://www.w3.org/Graphics/SVG/1.1/DTD/svg11.dtd">
<!-- Generated by graphviz version 2.40.1 (20161225.0304)
 -->
<!-- Title: dependencies Pages: 1 -->
<svg width="1168pt" height="211pt"
 viewBox="0.00 0.00 1168.00 211.00" xmlns="http://www.w3.org/2000/svg" xmlns:xlink="http://www.w3.org/1999/xlink">
<g id="graph0" class="graph" transform="scale(1 1) rotate(0) translate(4 207)">
<title>dependencies</title>
<polygon fill="#ffffff" stroke="transparent" points="-4,4 -4,-207 1164,-207 1164,4 -4,4"/>
<text text-anchor="start" x="559.0091" y="-42.4" font-family="sans-serif" font-weight="bold" font-size="14.00" fill="#000000">Legend</text>
<polygon fill="#ffffb3" stroke="transparent" points="346,-10 346,-30 366,-30 366,-10 346,-10"/>
<text text-anchor="start" x="369.629" y="-15.4" font-family="sans-serif" font-size="14.00" fill="#000000"> &#160;Declarations</text>
<polygon fill="#8dd3c7" stroke="transparent" points="459,-10 459,-30 479,-30 479,-10 459,-10"/>
<text text-anchor="start" x="482.7251" y="-15.4" font-family="sans-serif" font-size="14.00" fill="#000000"> &#160;Module</text>
<polygon fill="#80b1d3" stroke="transparent" points="545,-10 545,-30 565,-30 565,-10 545,-10"/>
<text text-anchor="start" x="568.7812" y="-15.4" font-family="sans-serif" font-size="14.00" fill="#000000"> &#160;Bootstrap</text>
<polygon fill="#fdb462" stroke="transparent" points="642,-10 642,-30 662,-30 662,-10 642,-10"/>
<text text-anchor="start" x="665.6732" y="-15.4" font-family="sans-serif" font-size="14.00" fill="#000000"> &#160;Providers</text>
<polygon fill="#fb8072" stroke="transparent" points="738,-10 738,-30 758,-30 758,-10 738,-10"/>
<text text-anchor="start" x="761.7258" y="-15.4" font-family="sans-serif" font-size="14.00" fill="#000000"> &#160;Exports</text>
<g id="clust1" class="cluster">
<title>cluster_ProjectModule</title>
<polygon fill="none" stroke="#000000" stroke-dasharray="1,5" points="8,-70 8,-195 1152,-195 1152,-70 8,-70"/>
</g>
<g id="clust2" class="cluster">
<title>cluster_ProjectModule_declarations</title>
<polygon fill="none" stroke="#000000" points="479,-78 479,-130 1144,-130 1144,-78 479,-78"/>
</g>
<g id="clust7" class="cluster">
<title>cluster_ProjectModule_imports</title>
<polygon fill="none" stroke="#000000" points="311,-78 311,-130 471,-130 471,-78 311,-78"/>
</g>
<g id="clust10" class="cluster">
<title>cluster_ProjectModule_providers</title>
<polygon fill="none" stroke="#000000" points="16,-78 16,-130 303,-130 303,-78 16,-78"/>
</g>
<!-- ProjectComponent -->
<g id="node1" class="node">
<title>ProjectComponent</title>
<polygon fill="#ffffb3" stroke="#000000" points="1136.486,-122 1015.514,-122 1015.514,-86 1136.486,-86 1136.486,-122"/>
<text text-anchor="middle" x="1076" y="-99.8" font-family="Times,serif" font-size="14.00" fill="#000000">ProjectComponent</text>
</g>
<!-- ProjectModule -->
<g id="node5" class="node">
<title>ProjectModule</title>
<polygon fill="#8dd3c7" stroke="#000000" points="607.7036,-187 604.7036,-191 583.7036,-191 580.7036,-187 508.2964,-187 508.2964,-151 607.7036,-151 607.7036,-187"/>
<text text-anchor="middle" x="558" y="-164.8" font-family="Times,serif" font-size="14.00" fill="#000000">ProjectModule</text>
</g>
<!-- ProjectComponent&#45;&gt;ProjectModule -->
<g id="edge1" class="edge">
<title>ProjectComponent&#45;&gt;ProjectModule</title>
<path fill="none" stroke="#000000" d="M1076,-122.2921C1076,-144.2057 1076,-178 1076,-178 1076,-178 617.668,-178 617.668,-178"/>
<polygon fill="#000000" stroke="#000000" points="617.6681,-174.5001 607.668,-178 617.668,-181.5001 617.6681,-174.5001"/>
</g>
<!-- ProjectDashboardComponent -->
<g id="node2" class="node">
<title>ProjectDashboardComponent</title>
<polygon fill="#ffffb3" stroke="#000000" points="997.6274,-122 816.3726,-122 816.3726,-86 997.6274,-86 997.6274,-122"/>
<text text-anchor="middle" x="907" y="-99.8" font-family="Times,serif" font-size="14.00" fill="#000000">ProjectDashboardComponent</text>
</g>
<!-- ProjectDashboardComponent&#45;&gt;ProjectModule -->
<g id="edge2" class="edge">
<title>ProjectDashboardComponent&#45;&gt;ProjectModule</title>
<path fill="none" stroke="#000000" d="M907,-122.1061C907,-141.3391 907,-169 907,-169 907,-169 617.6326,-169 617.6326,-169"/>
<polygon fill="#000000" stroke="#000000" points="617.6326,-165.5001 607.6326,-169 617.6325,-172.5001 617.6326,-165.5001"/>
</g>
<!-- ProjectFormComponent -->
<g id="node3" class="node">
<title>ProjectFormComponent</title>
<polygon fill="#ffffb3" stroke="#000000" points="798.8201,-122 647.1799,-122 647.1799,-86 798.8201,-86 798.8201,-122"/>
<text text-anchor="middle" x="723" y="-99.8" font-family="Times,serif" font-size="14.00" fill="#000000">ProjectFormComponent</text>
</g>
<!-- ProjectFormComponent&#45;&gt;ProjectModule -->
<g id="edge3" class="edge">
<title>ProjectFormComponent&#45;&gt;ProjectModule</title>
<path fill="none" stroke="#000000" d="M723,-122.027C723,-138.3976 723,-160 723,-160 723,-160 617.9532,-160 617.9532,-160"/>
<polygon fill="#000000" stroke="#000000" points="617.9532,-156.5001 607.9532,-160 617.9532,-163.5001 617.9532,-156.5001"/>
</g>
<!-- ProjectListComponent -->
<g id="node4" class="node">
<title>ProjectListComponent</title>
<polygon fill="#ffffb3" stroke="#000000" points="629.2646,-122 486.7354,-122 486.7354,-86 629.2646,-86 629.2646,-122"/>
<text text-anchor="middle" x="558" y="-99.8" font-family="Times,serif" font-size="14.00" fill="#000000">ProjectListComponent</text>
</g>
<!-- ProjectListComponent&#45;&gt;ProjectModule -->
<g id="edge4" class="edge">
<title>ProjectListComponent&#45;&gt;ProjectModule</title>
<path fill="none" stroke="#000000" d="M558,-122.1061C558,-122.1061 558,-140.991 558,-140.991"/>
<polygon fill="#000000" stroke="#000000" points="554.5001,-140.9909 558,-150.991 561.5001,-140.991 554.5001,-140.9909"/>
</g>
<!-- ProjectRquiredModule -->
<g id="node6" class="node">
<title>ProjectRquiredModule</title>
<polygon fill="#8dd3c7" stroke="#000000" points="463.3061,-122 460.3061,-126 439.3061,-126 436.3061,-122 318.6939,-122 318.6939,-86 463.3061,-86 463.3061,-122"/>
<text text-anchor="middle" x="391" y="-99.8" font-family="Times,serif" font-size="14.00" fill="#000000">ProjectRquiredModule</text>
</g>
<!-- ProjectRquiredModule&#45;&gt;ProjectModule -->
<g id="edge5" class="edge">
<title>ProjectRquiredModule&#45;&gt;ProjectModule</title>
<path fill="none" stroke="#000000" d="M391,-122.027C391,-138.3976 391,-160 391,-160 391,-160 498.3466,-160 498.3466,-160"/>
<polygon fill="#000000" stroke="#000000" points="498.3467,-163.5001 508.3466,-160 498.3466,-156.5001 498.3467,-163.5001"/>
</g>
<!-- ProjectForm -->
<g id="node7" class="node">
<title>ProjectForm</title>
<ellipse fill="#fdb462" stroke="#000000" cx="236" cy="-104" rx="59.1257" ry="18"/>
<text text-anchor="middle" x="236" y="-99.8" font-family="Times,serif" font-size="14.00" fill="#000000">ProjectForm</text>
</g>
<!-- ProjectForm&#45;&gt;ProjectModule -->
<g id="edge6" class="edge">
<title>ProjectForm&#45;&gt;ProjectModule</title>
<path fill="none" stroke="#000000" d="M236,-122.1061C236,-141.3391 236,-169 236,-169 236,-169 498.3932,-169 498.3932,-169"/>
<polygon fill="#000000" stroke="#000000" points="498.3932,-172.5001 508.3932,-169 498.3931,-165.5001 498.3932,-172.5001"/>
</g>
<!-- ProjectService -->
<g id="node8" class="node">
<title>ProjectService</title>
<ellipse fill="#fdb462" stroke="#000000" cx="91" cy="-104" rx="67.1888" ry="18"/>
<text text-anchor="middle" x="91" y="-99.8" font-family="Times,serif" font-size="14.00" fill="#000000">ProjectService</text>
</g>
<!-- ProjectService&#45;&gt;ProjectModule -->
<g id="edge7" class="edge">
<title>ProjectService&#45;&gt;ProjectModule</title>
<path fill="none" stroke="#000000" d="M91,-122.2921C91,-144.2057 91,-178 91,-178 91,-178 498.0228,-178 498.0228,-178"/>
<polygon fill="#000000" stroke="#000000" points="498.0229,-181.5001 508.0228,-178 498.0228,-174.5001 498.0229,-181.5001"/>
</g>
</g>
</svg>
