<?xml version="1.0" encoding="UTF-8" standalone="no"?>
<!DOCTYPE svg PUBLIC "-//W3C//DTD SVG 1.1//EN"
 "http://www.w3.org/Graphics/SVG/1.1/DTD/svg11.dtd">
<!-- Generated by graphviz version 2.40.1 (20161225.0304)
 -->
<!-- Title: dependencies Pages: 1 -->
<svg width="504pt" height="284pt"
 viewBox="0.00 0.00 504.00 284.00" xmlns="http://www.w3.org/2000/svg" xmlns:xlink="http://www.w3.org/1999/xlink">
<g id="graph0" class="graph" transform="scale(1 1) rotate(0) translate(4 280)">
<title>dependencies</title>
<polygon fill="#ffffff" stroke="transparent" points="-4,4 -4,-280 500,-280 500,4 -4,4"/>
<text text-anchor="start" x="227.0091" y="-42.4" font-family="sans-serif" font-weight="bold" font-size="14.00" fill="#000000">Legend</text>
<polygon fill="#ffffb3" stroke="transparent" points="14,-10 14,-30 34,-30 34,-10 14,-10"/>
<text text-anchor="start" x="37.629" y="-15.4" font-family="sans-serif" font-size="14.00" fill="#000000"> &#160;Declarations</text>
<polygon fill="#8dd3c7" stroke="transparent" points="127,-10 127,-30 147,-30 147,-10 127,-10"/>
<text text-anchor="start" x="150.7251" y="-15.4" font-family="sans-serif" font-size="14.00" fill="#000000"> &#160;Module</text>
<polygon fill="#80b1d3" stroke="transparent" points="213,-10 213,-30 233,-30 233,-10 213,-10"/>
<text text-anchor="start" x="236.7812" y="-15.4" font-family="sans-serif" font-size="14.00" fill="#000000"> &#160;Bootstrap</text>
<polygon fill="#fdb462" stroke="transparent" points="310,-10 310,-30 330,-30 330,-10 310,-10"/>
<text text-anchor="start" x="333.6732" y="-15.4" font-family="sans-serif" font-size="14.00" fill="#000000"> &#160;Providers</text>
<polygon fill="#fb8072" stroke="transparent" points="406,-10 406,-30 426,-30 426,-10 406,-10"/>
<text text-anchor="start" x="429.7258" y="-15.4" font-family="sans-serif" font-size="14.00" fill="#000000"> &#160;Exports</text>
<g id="clust1" class="cluster">
<title>cluster_SidebarModule</title>
<polygon fill="none" stroke="#000000" stroke-dasharray="1,5" points="31.5,-70 31.5,-268 464.5,-268 464.5,-70 31.5,-70"/>
</g>
<g id="clust2" class="cluster">
<title>cluster_SidebarModule_declarations</title>
<polygon fill="none" stroke="#000000" points="316.5,-78 316.5,-130 456.5,-130 456.5,-78 316.5,-78"/>
</g>
<g id="clust4" class="cluster">
<title>cluster_SidebarModule_imports</title>
<polygon fill="none" stroke="#000000" points="39.5,-78 39.5,-130 308.5,-130 308.5,-78 39.5,-78"/>
</g>
<g id="clust5" class="cluster">
<title>cluster_SidebarModule_exports</title>
<polygon fill="none" stroke="#000000" points="164.5,-208 164.5,-260 308.5,-260 308.5,-208 164.5,-208"/>
</g>
<!-- SidebarComponent -->
<g id="node1" class="node">
<title>SidebarComponent</title>
<polygon fill="#ffffb3" stroke="#000000" points="448.5954,-122 324.4046,-122 324.4046,-86 448.5954,-86 448.5954,-122"/>
<text text-anchor="middle" x="386.5" y="-99.8" font-family="Times,serif" font-size="14.00" fill="#000000">SidebarComponent</text>
</g>
<!-- SidebarModule -->
<g id="node2" class="node">
<title>SidebarModule</title>
<polygon fill="#8dd3c7" stroke="#000000" points="287.8133,-187 284.8133,-191 263.8133,-191 260.8133,-187 185.1867,-187 185.1867,-151 287.8133,-151 287.8133,-187"/>
<text text-anchor="middle" x="236.5" y="-164.8" font-family="Times,serif" font-size="14.00" fill="#000000">SidebarModule</text>
</g>
<!-- SidebarComponent&#45;&gt;SidebarModule -->
<g id="edge1" class="edge">
<title>SidebarComponent&#45;&gt;SidebarModule</title>
<path fill="none" stroke="#000000" d="M386.5,-122.1061C386.5,-141.3391 386.5,-169 386.5,-169 386.5,-169 297.702,-169 297.702,-169"/>
<polygon fill="#000000" stroke="#000000" points="297.702,-165.5001 287.702,-169 297.7019,-172.5001 297.702,-165.5001"/>
</g>
<!-- SidebarComponent  -->
<g id="node5" class="node">
<title>SidebarComponent </title>
<polygon fill="#fb8072" stroke="#000000" points="300.096,-252 172.904,-252 172.904,-216 300.096,-216 300.096,-252"/>
<text text-anchor="middle" x="236.5" y="-229.8" font-family="Times,serif" font-size="14.00" fill="#000000">SidebarComponent </text>
</g>
<!-- SidebarModule&#45;&gt;SidebarComponent  -->
<g id="edge4" class="edge">
<title>SidebarModule&#45;&gt;SidebarComponent </title>
<path fill="none" stroke="#000000" stroke-dasharray="5,2" d="M236.5,-187.1061C236.5,-187.1061 236.5,-205.991 236.5,-205.991"/>
<polygon fill="#000000" stroke="#000000" points="233.0001,-205.9909 236.5,-215.991 240.0001,-205.991 233.0001,-205.9909"/>
</g>
<!-- BreadcrumbModule -->
<g id="node3" class="node">
<title>BreadcrumbModule</title>
<polygon fill="#8dd3c7" stroke="#000000" points="300.7423,-122 297.7423,-126 276.7423,-126 273.7423,-122 172.2577,-122 172.2577,-86 300.7423,-86 300.7423,-122"/>
<text text-anchor="middle" x="236.5" y="-99.8" font-family="Times,serif" font-size="14.00" fill="#000000">BreadcrumbModule</text>
</g>
<!-- BreadcrumbModule&#45;&gt;SidebarModule -->
<g id="edge2" class="edge">
<title>BreadcrumbModule&#45;&gt;SidebarModule</title>
<path fill="none" stroke="#000000" d="M236.5,-122.1061C236.5,-122.1061 236.5,-140.991 236.5,-140.991"/>
<polygon fill="#000000" stroke="#000000" points="233.0001,-140.9909 236.5,-150.991 240.0001,-140.991 233.0001,-140.9909"/>
</g>
<!-- MaterialModule -->
<g id="node4" class="node">
<title>MaterialModule</title>
<polygon fill="#8dd3c7" stroke="#000000" points="153.9706,-122 150.9706,-126 129.9706,-126 126.9706,-122 47.0294,-122 47.0294,-86 153.9706,-86 153.9706,-122"/>
<text text-anchor="middle" x="100.5" y="-99.8" font-family="Times,serif" font-size="14.00" fill="#000000">MaterialModule</text>
</g>
<!-- MaterialModule&#45;&gt;SidebarModule -->
<g id="edge3" class="edge">
<title>MaterialModule&#45;&gt;SidebarModule</title>
<path fill="none" stroke="#000000" d="M100.5,-122.1061C100.5,-141.3391 100.5,-169 100.5,-169 100.5,-169 175.0842,-169 175.0842,-169"/>
<polygon fill="#000000" stroke="#000000" points="175.0843,-172.5001 185.0842,-169 175.0842,-165.5001 175.0843,-172.5001"/>
</g>
</g>
</svg>
